<?xml version="1.0" standalone="no"?>
<!DOCTYPE svg PUBLIC "-//W3C//DTD SVG 20010904//EN"
 "http://www.w3.org/TR/2001/REC-SVG-20010904/DTD/svg10.dtd">
<svg version="1.0" xmlns="http://www.w3.org/2000/svg"
 width="1000.000000pt" height="1000.000000pt" viewBox="0 0 1000.000000 1000.000000"
 preserveAspectRatio="xMidYMid meet">

<g transform="translate(0.000000,1000.000000) scale(0.100000,-0.100000)"
fill="#000000" stroke="none">
<path d="M0 5000 l0 -5000 5000 0 5000 0 0 5000 0 5000 -5000 0 -5000 0 0
-5000z m4818 3912 c-1 -4 -19 -35 -38 -70 l-35 -62 -81 0 -81 0 -29 -52 c-16
-29 -30 -56 -32 -60 -2 -5 28 -8 67 -8 39 0 71 -4 71 -9 0 -6 -16 -37 -35 -70
l-35 -60 -77 -3 -77 -3 -38 -65 c-21 -36 -38 -69 -38 -73 0 -5 36 -7 80 -5 44
2 80 1 80 -2 0 -3 -14 -33 -32 -67 l-33 -63 -177 0 c-98 0 -178 2 -178 4 0 2
83 152 184 333 l184 328 88 6 c145 9 266 10 262 1z m-425 -725 c20 -13 27 -26
27 -48 0 -41 -94 -220 -141 -269 -43 -44 -111 -70 -183 -70 l-51 0 -79 -140
-79 -140 -88 0 c-49 0 -89 2 -89 5 0 13 351 646 373 673 18 22 274 13 310 -11z
m-413 -710 c48 -17 59 -51 36 -111 -29 -75 -77 -139 -121 -161 -22 -11 -42
-21 -45 -23 -3 -2 3 -8 13 -13 37 -21 7 -114 -79 -244 -68 -101 -114 -117
-336 -113 l-147 3 50 90 c28 50 85 153 127 230 41 77 92 167 112 200 20 33 49
81 64 108 l27 47 132 -1 c75 0 147 -5 167 -12z m835 -1242 c66 -18 115 -44
163 -89 70 -65 91 -141 94 -351 l3 -140 -171 -3 -172 -2 -4 168 c-4 181 -9
202 -54 202 -55 0 -54 4 -54 -450 0 -455 -1 -450 55 -450 39 0 48 33 53 187
l5 143 169 0 c137 0 170 -3 174 -14 8 -22 -14 -286 -27 -326 -19 -56 -65 -112
-125 -152 -79 -53 -120 -63 -264 -63 -157 1 -217 21 -297 100 -87 88 -88 95
-88 585 l0 415 26 56 c44 93 120 154 229 185 64 17 215 17 285 -1z m1844 -13
c125 -49 166 -102 181 -234 6 -46 10 -102 10 -125 l0 -43 -165 0 -165 0 0 81
c0 44 -5 89 -10 100 -15 27 -56 24 -76 -6 -23 -35 -16 -145 11 -176 11 -12 78
-59 148 -105 154 -101 226 -170 252 -239 23 -64 33 -302 16 -373 -34 -133
-171 -212 -371 -212 -198 0 -339 85 -370 222 -7 29 -14 104 -17 166 l-6 113
164 -3 164 -3 5 -120 c3 -66 9 -126 13 -132 15 -23 65 -15 83 12 24 37 17 173
-12 212 -12 15 -83 71 -159 124 -169 119 -196 146 -229 219 -47 104 -45 305 4
400 31 61 99 110 190 136 71 21 271 12 339 -14z m926 13 c76 -20 152 -62 180
-100 34 -46 45 -90 52 -207 l6 -108 -166 0 -167 0 0 89 c0 98 -10 118 -55 107
-44 -11 -60 -101 -31 -171 15 -35 27 -45 182 -145 124 -81 196 -148 223 -209
31 -73 46 -227 32 -331 -19 -143 -76 -206 -224 -252 -96 -29 -255 -23 -344 13
-149 62 -190 138 -196 359 l-2 105 162 3 161 2 4 -125 c3 -134 7 -145 55 -145
40 0 55 39 52 134 -5 103 -10 110 -181 227 -64 44 -137 98 -161 119 -82 72
-117 207 -98 368 18 148 75 220 204 261 78 25 228 28 312 6z m-4465 -145 l0
-140 -112 0 -113 0 0 -115 0 -114 105 -3 105 -3 3 -127 3 -127 -106 -3 -106
-3 -2 -133 -2 -132 123 0 122 0 0 -140 0 -140 -295 0 -295 0 0 660 0 660 285
0 285 0 0 -140z m2760 0 l0 -140 -110 0 -110 0 0 -115 0 -114 103 -3 102 -3 3
-127 3 -128 -106 0 -105 0 0 -135 0 -135 119 0 c69 0 121 -4 123 -10 2 -5 2
-68 0 -140 l-3 -130 -295 0 -294 0 0 660 0 660 285 0 285 0 0 -140z m-2152 15
l41 -116 -107 -214 c-59 -118 -110 -215 -113 -215 -3 0 -13 24 -22 53 -8 28
-54 174 -101 323 -47 149 -86 274 -86 277 0 4 78 7 173 7 l173 0 42 -115z
m301 -816 c72 -196 131 -362 131 -368 0 -8 -61 -11 -205 -11 l-204 0 -56 178
c-31 97 -63 197 -71 221 -16 52 -28 32 124 203 68 77 110 133 106 140 -4 6 -3
8 4 4 6 -3 14 -1 18 5 10 17 7 23 153 -372z m4838 309 c16 -58 29 -247 33
-483 3 -172 16 -116 24 105 9 229 17 324 27 308 5 -7 9 -31 10 -53 1 -25 6 -7
13 50 l12 90 7 -215 c9 -243 7 -521 -3 -595 -6 -39 -8 -43 -9 -17 0 18 -5 31
-9 28 -5 -3 -7 -20 -5 -38 3 -30 2 -31 -6 -7 -5 14 -16 37 -25 51 -9 14 -14
33 -10 42 4 11 1 16 -14 16 -15 0 -18 -5 -15 -24 6 -29 -12 -66 -32 -66 -20 0
-19 -10 3 -26 15 -12 16 -13 0 -14 -27 0 -48 11 -48 26 0 8 -4 14 -8 14 -21 0
-32 87 -32 262 0 229 7 311 27 304 8 -3 12 -2 9 2 -10 16 22 282 33 282 4 0
12 -19 18 -42z m-7248 -628 c0 -151 -3 -280 -7 -286 -4 -7 -16 -12 -27 -12
-39 1 -45 -2 -45 -23 0 -15 -4 -19 -16 -15 -9 3 -20 6 -26 6 -6 0 -7 8 -4 17
4 10 4 14 0 10 -4 -4 -20 5 -35 19 l-28 27 -6 -29 c-23 -105 -33 -13 -33 311
0 228 12 523 16 408 2 -54 22 -57 22 -3 0 29 4 40 15 40 11 0 15 -11 16 -37 0
-21 4 -47 9 -58 7 -15 9 -9 9 25 2 67 10 93 27 79 8 -6 14 -23 14 -37 0 -25 1
-25 14 -6 14 18 15 18 21 2 4 -10 10 -18 14 -18 11 0 31 62 33 101 4 85 16
-273 17 -521z m2111 546 c0 -2 -8 -10 -17 -17 -16 -13 -17 -12 -4 4 13 16 21
21 21 13z m-96 -87 c9 8 13 7 13 -4 0 -7 -5 -13 -11 -12 -6 1 -10 -3 -9 -10 1
-6 -4 -14 -12 -17 -16 -6 -21 9 -5 19 5 3 8 11 6 18 -1 7 -1 8 2 4 2 -4 10 -3
16 2z m-148 -32 c0 -13 -6 -24 -13 -24 -8 0 -8 7 0 24 13 29 15 29 13 0z m84
-50 c17 -12 16 -15 -15 -48 -31 -34 -65 -41 -46 -10 5 7 14 10 20 7 15 -10 14
7 -1 23 -11 11 -10 12 1 6 11 -6 13 -4 8 11 -7 19 -7 19 8 0 8 -11 18 -17 22
-13 3 4 -1 15 -10 25 -10 10 -16 27 -16 38 1 15 3 15 6 -3 2 -13 13 -29 23
-36z m-104 -2 c-5 -15 9 -22 17 -7 5 9 -1 -13 -10 -35 -5 -12 -2 -15 8 -11 10
4 14 -3 15 -28 0 -29 -16 -53 -119 -171 -65 -76 -123 -142 -129 -148 -6 -5 16
41 48 104 82 160 136 259 130 240 -6 -21 9 -45 18 -30 4 6 3 11 -3 11 -7 0 -7
8 -1 26 7 18 7 23 -2 18 -7 -5 -8 -2 -3 7 21 37 42 53 31 24z m624 -536 c137
-21 256 -105 306 -213 40 -87 46 -179 42 -622 -5 -453 -6 -459 -72 -559 -83
-125 -267 -191 -460 -165 -115 16 -177 43 -245 106 -122 113 -135 193 -128
764 4 349 6 379 25 433 24 66 76 142 119 173 106 78 256 109 413 83z m856
-466 c18 -235 34 -441 34 -457 0 -60 8 -17 19 104 23 249 87 779 95 787 2 2
93 4 202 4 l199 0 7 -28 c4 -15 20 -203 37 -418 44 -549 44 -547 59 -345 13
166 51 513 75 690 l13 95 197 3 197 2 -5 -27 c-3 -16 -41 -336 -85 -713 -44
-377 -83 -702 -86 -722 l-6 -38 -243 0 c-223 0 -244 1 -249 18 -10 31 -73 423
-91 565 -10 76 -19 136 -21 134 -4 -3 -104 -690 -104 -709 0 -5 -110 -8 -245
-8 l-244 0 -6 33 c-3 17 -41 340 -85 717 -44 377 -82 700 -85 717 l-6 33 188
2 c103 2 192 0 197 -4 4 -3 23 -199 42 -435z m-1765 421 c97 -22 156 -64 194
-138 l30 -60 0 -240 c0 -279 -7 -310 -78 -371 -55 -47 -119 -66 -254 -72
l-113 -6 0 -298 0 -299 -200 0 -200 0 0 750 0 750 276 0 c215 0 290 -3 345
-16z m3657 -136 l-3 -153 -127 -3 -128 -3 0 -139 0 -140 120 0 120 0 0 -145 0
-145 -120 0 -120 0 0 -155 0 -155 140 0 140 0 0 -155 0 -155 -340 0 -340 0 0
750 0 750 330 0 331 0 -3 -152z m827 129 c95 -31 159 -106 186 -217 17 -68 17
-280 0 -337 -16 -59 -53 -99 -111 -120 l-50 -19 53 -26 c72 -35 106 -86 118
-175 4 -37 8 -184 9 -325 l0 -258 -190 0 -190 0 0 315 c0 302 -1 316 -20 335
-11 11 -33 20 -50 20 l-30 0 0 -335 0 -335 -200 0 -200 0 0 751 0 751 313 -4
c254 -4 321 -8 362 -21z m1170 -43 c9 -9 13 -19 10 -22 -3 -3 -15 4 -27 16
-13 12 -17 22 -11 22 6 0 19 -7 28 -16z m-7405 -1266 c0 -4 16 -8 35 -8 28 0
38 5 45 23 5 12 9 16 9 9 1 -9 6 -10 21 -2 15 8 21 6 30 -10 13 -25 27 -26 33
-2 2 9 7 -13 11 -51 9 -76 4 -322 -7 -333 -6 -6 -159 -7 -190 -1 -7 1 -15 13
-18 27 -9 34 -10 305 -2 354 6 36 7 37 20 21 7 -11 13 -22 13 -27z m2534 -308
c31 -11 33 -29 7 -61 -16 -19 -21 -21 -34 -11 -13 11 -17 10 -26 -5 -6 -11
-11 -13 -11 -5 0 8 -9 12 -22 10 -18 -2 -22 1 -20 17 l3 20 -16 -20 c-9 -11
-20 -27 -25 -35 -8 -13 -10 -13 -22 2 -7 9 -22 18 -33 20 -15 2 -21 12 -23 41
l-3 37 100 0 c55 0 111 -4 125 -10z m400 -6 c3 -8 2 -12 -4 -9 -6 3 -10 -2
-11 -12 -1 -13 -3 -11 -9 7 -8 25 -8 25 -10 -5 -1 -18 -4 -23 -7 -12 -6 22 -9
21 -33 -3 -11 -11 -26 -17 -34 -14 -15 6 -40 -28 -29 -40 3 -3 1 -6 -5 -6 -7
0 -15 18 -18 40 -4 22 -10 43 -15 46 -5 3 -6 -1 -4 -9 3 -7 -1 -29 -10 -48
-15 -32 -16 -33 -9 -4 4 17 8 41 9 55 1 14 3 26 4 28 0 1 41 2 90 2 71 0 90
-3 95 -16z m366 6 c-8 -5 -10 -10 -5 -10 6 0 3 -5 -5 -10 -10 -6 -11 -10 -2
-10 6 0 12 -5 12 -10 0 -7 -6 -7 -20 0 -11 6 -17 16 -14 25 7 17 -31 22 -41 5
-3 -5 -12 -7 -19 -4 -8 3 -16 -7 -23 -28 l-9 -33 -12 36 c-11 31 -17 36 -45
36 -41 0 -67 -18 -40 -28 17 -7 16 -8 -2 -8 -12 -1 -25 -5 -31 -11 -7 -7 -11
2 -12 25 l-3 35 143 0 c96 0 138 -3 128 -10z m94 4 c-7 -3 -10 -15 -8 -27 2
-12 2 -16 -2 -9 -3 6 -10 10 -14 7 -5 -3 -8 4 -7 15 1 13 8 20 22 19 11 0 15
-3 9 -5z m108 -1 c-6 -2 -10 -9 -6 -14 9 -15 -16 -10 -32 6 -14 13 -12 15 18
14 18 0 27 -3 20 -6z m-377 -32 c3 -5 1 -12 -5 -16 -5 -3 -10 1 -10 9 0 18 6
21 15 7z m-525 -45 c0 -5 -7 -1 -15 10 -8 10 -14 24 -14 29 0 6 6 1 14 -9 8
-11 15 -24 15 -30z m-1330 -1242 c0 -10 -14 -14 -50 -14 -47 0 -50 -2 -50 -25
0 -23 4 -25 45 -25 33 0 45 -4 45 -15 0 -11 -12 -15 -45 -15 -41 0 -45 -2 -45
-24 0 -23 4 -25 53 -28 75 -4 59 -23 -20 -23 l-68 0 -3 79 c-2 44 -1 85 2 93
8 19 136 16 136 -3z m98 -20 l29 -35 23 35 c12 20 28 36 36 36 20 0 18 -10
-11 -52 -30 -45 -30 -44 -2 -82 38 -51 40 -56 19 -56 -10 0 -30 16 -44 35
l-25 36 -24 -36 c-13 -19 -32 -35 -41 -35 -24 0 -23 6 13 52 l32 39 -32 45
c-35 51 -36 54 -17 54 8 0 28 -16 44 -36z m280 19 c2 -9 -7 -13 -27 -13 l-31
0 0 -80 c0 -73 -2 -80 -20 -80 -18 0 -20 7 -20 80 l0 80 -30 0 c-29 0 -38 9
-23 24 13 13 146 2 151 -11z m172 -8 c25 -23 26 -59 1 -84 -18 -18 -18 -19 0
-42 23 -30 24 -39 1 -39 -10 0 -26 14 -35 30 -12 20 -26 30 -43 30 -20 0 -24
-5 -24 -31 0 -24 -4 -30 -17 -27 -15 3 -18 16 -21 82 -2 44 0 86 3 94 8 21
108 11 135 -13z m207 -65 c23 -47 42 -88 42 -92 2 -18 -37 -6 -42 12 -4 17
-14 20 -55 20 -42 0 -52 -3 -57 -20 -3 -11 -15 -20 -25 -20 -18 0 -18 2 -3 38
35 84 75 153 86 150 7 -2 31 -42 54 -88z m303 65 c46 -41 9 -105 -60 -105 -38
0 -40 -2 -40 -30 0 -23 -4 -30 -20 -30 -18 0 -20 7 -20 88 0 49 3 92 8 96 13
14 111 0 132 -19z m222 2 c42 -27 47 -107 8 -142 -11 -10 -39 -20 -64 -22 -40
-5 -48 -2 -76 25 -49 50 -38 120 23 148 33 14 77 10 109 -9z m123 -47 c14 -39
25 -59 29 -50 3 8 14 38 23 65 24 66 43 64 68 -7 11 -31 23 -59 27 -63 3 -3
16 23 28 59 13 40 27 66 36 66 19 0 18 -3 -14 -100 -23 -67 -33 -85 -48 -85
-14 0 -24 14 -39 58 -11 31 -22 57 -26 57 -3 0 -14 -27 -24 -60 -15 -50 -22
-60 -38 -58 -16 2 -27 23 -49 88 -33 98 -33 102 -11 98 10 -2 25 -27 38 -68z
m405 55 c0 -11 -12 -15 -50 -15 -47 0 -50 -2 -50 -25 0 -23 4 -25 45 -25 33 0
45 -4 45 -15 0 -11 -12 -15 -45 -15 -41 0 -45 -2 -45 -24 0 -23 4 -25 53 -28
74 -4 60 -23 -19 -23 l-65 0 -2 88 c-2 48 -1 90 2 92 2 3 33 5 68 5 49 0 63
-3 63 -15z m183 -2 c21 -10 27 -21 27 -45 0 -17 -7 -39 -16 -49 -15 -16 -15
-20 0 -41 33 -47 2 -55 -33 -7 -29 39 -64 37 -69 -3 -2 -16 -9 -28 -18 -28
-11 0 -14 19 -14 96 l0 96 48 -3 c26 -1 59 -8 75 -16z m461 11 c32 -12 15 -24
-34 -24 -47 0 -50 -2 -50 -25 0 -23 4 -25 45 -25 33 0 45 -4 45 -15 0 -11 -12
-15 -45 -15 -41 0 -45 -2 -45 -25 0 -23 3 -25 50 -25 38 0 50 -4 50 -15 0 -12
-14 -15 -70 -15 l-70 0 0 88 c0 49 3 92 7 95 8 9 96 9 117 1z m112 -29 l27
-36 24 36 c13 19 30 35 38 35 21 0 18 -9 -14 -55 l-29 -40 35 -47 c29 -41 32
-48 16 -48 -10 0 -30 14 -45 32 l-28 33 -26 -32 c-14 -18 -32 -33 -40 -33 -20
0 -17 10 16 54 31 41 31 42 -7 92 -27 36 -28 44 -9 44 8 0 27 -16 42 -35z
m281 18 c3 -7 -9 -13 -29 -15 l-33 -3 -3 -77 c-2 -60 -6 -78 -17 -78 -12 0
-15 17 -15 80 l0 80 -30 0 c-20 0 -30 5 -30 15 0 13 13 15 77 13 48 -2 78 -7
80 -15z m175 -13 c24 -29 23 -55 -3 -81 -18 -18 -19 -23 -6 -37 27 -32 29 -42
8 -42 -11 0 -27 13 -38 30 -11 19 -25 30 -40 30 -19 0 -23 -5 -23 -30 0 -23
-4 -30 -20 -30 -18 0 -20 7 -20 88 0 49 3 92 8 96 4 4 31 6 61 4 41 -4 59 -10
73 -28z m195 -60 c23 -47 42 -88 42 -92 2 -18 -37 -6 -42 12 -4 17 -14 20 -55
20 -42 0 -52 -3 -57 -20 -3 -11 -15 -20 -25 -20 -17 0 -16 7 16 76 48 107 54
116 67 112 7 -2 31 -42 54 -88z m321 63 c28 -21 39 -64 28 -109 -9 -33 -55
-54 -121 -54 l-55 0 0 89 c0 62 4 91 13 95 25 11 109 -2 135 -21z m122 -43 c0
-70 10 -90 46 -90 33 0 43 19 46 90 2 50 7 65 18 65 12 0 15 -15 15 -73 0 -65
-3 -76 -24 -93 -27 -22 -79 -25 -107 -5 -15 11 -20 30 -24 91 -3 42 -4 78 -3
79 2 2 10 3 18 3 12 0 15 -14 15 -67z m297 59 c15 -5 31 -16 35 -22 13 -20 9
-60 -8 -78 -15 -17 -15 -20 0 -43 20 -31 20 -36 2 -36 -8 0 -24 14 -36 30 -14
19 -30 30 -46 30 -20 0 -24 -5 -24 -30 0 -20 -5 -30 -15 -30 -12 0 -15 17 -15
95 l0 95 39 0 c22 0 52 -5 68 -11z m234 -81 c21 -49 39 -90 39 -93 0 -14 -31
-2 -40 15 -8 16 -21 20 -59 20 -40 0 -50 -3 -54 -20 -5 -19 -37 -29 -37 -11 0
4 18 47 40 95 28 61 45 86 56 84 8 -2 33 -42 55 -90z m205 80 c23 -11 26 -16
21 -50 -3 -21 -1 -41 4 -44 5 -3 9 -18 9 -34 0 -38 -23 -50 -99 -50 l-61 0 0
95 0 95 50 0 c27 0 61 -5 76 -12z m124 -84 c0 -86 -2 -95 -17 -92 -15 3 -18
16 -21 82 -3 89 0 106 23 106 12 0 15 -16 15 -96z m100 14 l0 -78 50 0 c38 0
50 -4 50 -15 0 -13 -12 -15 -67 -13 l-66 3 1 90 c0 50 1 90 1 91 1 0 8 1 16 1
12 0 15 -16 15 -79z m170 -13 c0 -78 -3 -95 -15 -95 -12 0 -15 17 -15 95 0 78
3 95 15 95 12 0 15 -17 15 -95z m200 80 c0 -10 -10 -15 -30 -15 l-30 0 0 -80
c0 -64 -3 -80 -15 -80 -12 0 -15 16 -15 80 l0 80 -35 0 c-33 0 -43 8 -28 23 3
4 39 7 80 7 58 0 73 -3 73 -15z m69 -31 c14 -24 28 -43 31 -43 3 0 17 20 32
44 25 42 48 58 48 35 0 -5 -14 -33 -31 -61 -18 -28 -32 -65 -33 -82 -1 -22 -7
-33 -18 -35 -14 -3 -18 4 -18 30 0 20 -14 56 -35 91 -19 32 -35 59 -35 61 0 1
7 3 16 3 9 0 29 -20 43 -43z m-2873 -115 c10 -17 -13 -36 -27 -22 -12 12 -4
33 11 33 5 0 12 -5 16 -11z"/>
<path d="M4196 8068 c-7 -13 -30 -51 -49 -85 -31 -54 -34 -63 -18 -63 22 0 50
30 86 93 26 45 28 77 6 77 -6 0 -17 -10 -25 -22z"/>
<path d="M3757 7299 c-37 -68 -38 -70 -15 -67 14 2 35 21 56 52 36 54 41 86
15 86 -12 0 -31 -25 -56 -71z"/>
<path d="M3602 7023 c-27 -49 -45 -90 -40 -91 19 -8 57 30 92 92 41 73 44 86
17 86 -13 0 -34 -26 -69 -87z"/>
<path d="M8902 4935 c0 -16 2 -22 5 -12 2 9 2 23 0 30 -3 6 -5 -1 -5 -18z"/>
<path d="M3949 4533 c-11 -13 -14 -105 -14 -503 0 -529 0 -524 54 -518 50 6
51 17 51 523 0 410 -2 473 -16 493 -18 26 -56 29 -75 5z"/>
<path d="M2960 4336 l0 -186 35 0 c22 0 43 8 55 20 18 18 20 33 20 163 0 162
-4 172 -74 184 l-36 6 0 -187z"/>
<path d="M7390 4361 c0 -156 1 -161 21 -161 23 0 60 18 71 34 4 6 8 63 8 127
0 129 -6 143 -68 155 l-32 7 0 -162z"/>
<path d="M3890 3091 c0 -5 5 -13 10 -16 6 -3 10 -2 10 4 0 5 -4 13 -10 16 -5
3 -10 2 -10 -4z"/>
<path d="M3150 1770 c0 -34 3 -40 21 -40 27 0 55 16 62 34 9 22 -20 46 -54 46
-27 0 -29 -2 -29 -40z"/>
<path d="M3387 1773 c-2 -10 -8 -26 -12 -35 -6 -15 -2 -18 24 -18 17 0 31 2
31 4 0 1 -5 17 -11 35 -12 35 -24 40 -32 14z"/>
<path d="M3660 1770 c0 -34 3 -40 21 -40 27 0 55 16 62 34 9 22 -20 46 -54 46
-27 0 -29 -2 -29 -40z"/>
<path d="M3871 1784 c-26 -33 -27 -58 -1 -84 43 -43 110 -14 110 48 0 59 -72
83 -109 36z"/>
<path d="M4600 1775 c0 -41 16 -51 57 -38 54 18 37 73 -23 73 -32 0 -34 -2
-34 -35z"/>
<path d="M5620 1770 c0 -34 3 -40 21 -40 31 0 59 18 59 38 0 26 -20 42 -52 42
-26 0 -28 -3 -28 -40z"/>
<path d="M5846 1762 c-21 -41 -21 -42 15 -42 27 0 30 3 23 23 -15 49 -21 52
-38 19z"/>
<path d="M6130 1745 l0 -65 39 0 c30 0 44 6 55 22 35 50 2 108 -61 108 l-33 0
0 -65z"/>
<path d="M6580 1776 c0 -38 17 -50 55 -40 29 7 42 39 25 59 -7 8 -28 15 -46
15 -32 0 -34 -2 -34 -34z"/>
<path d="M6818 1760 c-14 -34 -14 -35 10 -38 34 -5 38 3 20 41 l-16 32 -14
-35z"/>
<path d="M7007 1804 c-4 -4 -7 -16 -7 -26 0 -16 6 -19 43 -16 34 2 42 7 42 23
0 16 -8 21 -35 23 -20 2 -39 0 -43 -4z"/>
<path d="M7000 1705 c0 -25 2 -26 48 -23 39 3 47 6 47 23 0 17 -8 20 -47 23
-46 3 -48 2 -48 -23z"/>
</g>
</svg>
