<?xml version="1.0" standalone="no"?>
<!DOCTYPE svg PUBLIC "-//W3C//DTD SVG 20010904//EN"
 "http://www.w3.org/TR/2001/REC-SVG-20010904/DTD/svg10.dtd">
<svg version="1.0" xmlns="http://www.w3.org/2000/svg"
 width="1000.000000pt" height="1000.000000pt" viewBox="0 0 1000.000000 1000.000000"
 preserveAspectRatio="xMidYMid meet">

<g transform="translate(0.000000,1000.000000) scale(0.100000,-0.100000)"
fill="#000000" stroke="none">
<path d="M4895 8911 l-79 -6 -36 -62 -35 -63 -81 0 -81 0 -29 -52 c-16 -29
-30 -56 -32 -60 -2 -5 28 -8 67 -8 39 0 71 -4 71 -9 0 -6 -16 -37 -35 -70
l-35 -60 -77 -3 -77 -3 -38 -65 c-21 -36 -38 -69 -38 -73 0 -5 36 -7 80 -5 44
2 80 1 80 -2 0 -3 -14 -33 -32 -67 l-33 -63 -176 0 c-143 0 -178 -3 -182 -14
-5 -12 19 -15 132 -18 214 -5 229 -27 139 -200 -29 -55 -69 -117 -89 -138 -43
-44 -111 -70 -183 -70 l-51 0 -79 -140 -78 -139 -91 -3 c-61 -2 -92 -7 -95
-15 -3 -10 26 -13 120 -14 142 0 188 -12 202 -51 19 -55 -60 -199 -129 -233
-22 -11 -42 -21 -45 -23 -3 -2 3 -8 13 -13 26 -15 21 -62 -14 -132 -43 -84
-85 -147 -123 -179 l-31 -27 248 -1 c173 0 247 -3 247 -11 0 -6 -82 -172 -182
-368 -100 -196 -244 -479 -320 -628 -77 -150 -136 -277 -133 -283 3 -5 1 -10
-5 -10 -6 0 -8 -4 -5 -10 3 -5 2 -10 -3 -10 -12 0 -54 -88 -56 -117 0 -12 -5
-21 -10 -20 -5 1 -9 -8 -11 -20 -2 -22 9 -31 18 -15 5 9 -1 -13 -10 -35 -5
-12 -2 -15 10 -10 11 4 14 2 10 -9 -3 -7 -2 -22 1 -31 5 -13 9 -14 19 -3 9 10
9 14 0 17 -13 5 -6 33 9 33 5 0 7 -4 4 -8 -3 -5 1 -9 9 -9 13 0 13 4 -1 25
-10 15 -11 21 -3 17 9 -6 11 -3 6 11 -7 19 -7 19 8 0 8 -11 18 -17 22 -13 3 4
-2 16 -11 26 -10 11 -16 28 -13 38 4 16 5 15 6 -2 1 -22 19 -45 34 -45 4 0 6
4 3 9 -3 5 0 8 7 7 18 -1 270 282 262 294 -4 6 -3 9 2 8 5 -2 47 40 93 92 47
52 87 97 90 100 3 3 48 55 100 115 52 61 97 112 100 115 3 3 52 59 110 125 58
66 117 134 132 150 14 17 35 39 45 51 10 12 43 49 73 84 30 35 63 72 73 84 10
12 42 48 71 81 29 33 88 101 131 150 42 50 98 113 124 140 26 28 71 78 100
113 l54 62 1813 0 1814 0 2 -922 c1 -508 3 -903 5 -880 3 34 8 42 19 38 8 -3
13 -2 10 2 -10 16 22 282 33 282 25 0 46 -210 51 -530 3 -174 15 -118 24 110
9 224 17 320 27 314 5 -3 10 -26 10 -52 2 -37 4 -28 14 43 l12 90 4 -130 c3
-71 6 317 7 863 l2 992 -2251 0 c-2139 0 -2251 1 -2247 18 3 9 156 244 340
522 184 278 397 600 473 715 76 116 156 236 177 268 l39 57 -278 -2 c-153 -1
-314 -4 -358 -7z m-1165 -3395 c0 -2 -8 -10 -17 -17 -16 -13 -17 -12 -4 4 13
16 21 21 21 13z m-96 -87 c9 8 13 7 13 -4 0 -7 -5 -13 -11 -12 -6 1 -10 -3 -9
-10 1 -6 -4 -14 -12 -17 -16 -6 -21 9 -5 19 5 3 8 11 6 18 -1 7 -1 8 2 4 2 -4
10 -3 16 2z"/>
<path d="M4196 8068 c-7 -13 -30 -51 -49 -85 -31 -54 -34 -63 -18 -63 22 0 50
30 86 93 26 45 28 77 6 77 -6 0 -17 -10 -25 -22z"/>
<path d="M1970 7600 l0 -180 300 0 300 0 0 180 0 180 -300 0 -300 0 0 -180z
m463 23 c4 -2 7 -17 7 -33 0 -25 -5 -30 -32 -35 -18 -3 -85 -5 -148 -3 l-115
3 -3 37 -3 37 48 4 c53 5 234 -2 246 -10z"/>
<path d="M7830 7600 l0 -180 300 0 300 0 0 180 0 180 -300 0 -300 0 0 -180z
m350 85 l0 -45 46 0 45 0 -3 -37 c-3 -37 -4 -38 -45 -41 -42 -3 -42 -3 -45
-45 -3 -41 -4 -42 -38 -42 -34 0 -35 1 -38 43 l-3 42 -45 0 -44 0 0 40 0 40
45 0 45 0 0 38 c0 47 4 52 47 52 33 0 33 -1 33 -45z"/>
<path d="M3757 7299 c-37 -68 -38 -70 -15 -67 14 2 35 21 56 52 36 54 41 86
15 86 -12 0 -31 -25 -56 -71z"/>
<path d="M1392 6308 c1 -568 5 -995 8 -948 3 47 7 66 8 43 3 -54 22 -57 22 -3
0 29 4 40 15 40 11 0 15 -11 16 -37 0 -21 4 -47 9 -58 7 -15 9 -9 9 25 2 67
10 93 27 79 8 -6 14 -23 14 -37 0 -25 1 -25 14 -6 14 18 15 18 21 2 4 -10 10
-18 14 -18 10 0 31 62 33 101 1 19 5 -22 8 -91 3 -69 7 290 8 798 l2 922 924
0 924 0 38 68 c20 37 48 86 61 110 l25 42 -1101 0 -1101 0 2 -1032z"/>
<path d="M3602 7023 c-27 -49 -45 -90 -40 -91 19 -8 57 30 92 92 41 73 44 86
17 86 -13 0 -34 -26 -69 -87z"/>
<path d="M3431 5298 c-10 -27 -3 -51 12 -41 8 5 8 8 0 10 -8 3 -9 12 -3 29 5
13 7 24 4 24 -2 0 -8 -10 -13 -22z"/>
<path d="M8902 4935 c0 -16 2 -22 5 -12 2 9 2 23 0 30 -3 6 -5 -1 -5 -18z"/>
<path d="M8897 4856 c6 -29 -12 -66 -32 -66 -20 0 -19 -10 3 -26 15 -12 16
-13 0 -14 -27 0 -48 11 -48 26 0 8 -4 14 -9 14 -4 0 -13 15 -19 33 -7 22 -10
-322 -11 -1175 l-1 -1208 -3580 0 -3580 0 -1 343 c-1 188 -4 330 -6 315 -4
-27 -17 -33 -63 -30 -8 0 -44 2 -80 3 -61 2 -65 4 -71 28 -4 14 -6 -176 -5
-424 l1 -450 3800 0 3800 0 1 1310 c1 721 -2 1290 -6 1265 -6 -40 -7 -41 -8
-12 -1 18 -6 31 -10 28 -5 -3 -7 -20 -5 -38 3 -30 2 -31 -6 -7 -5 14 -16 37
-25 51 -9 14 -14 33 -10 42 4 11 1 16 -14 16 -15 0 -18 -5 -15 -24z m-62 -142
c9 -9 13 -19 10 -22 -3 -3 -15 4 -27 16 -13 12 -17 22 -11 22 6 0 19 -7 28
-16z"/>
<path d="M1393 4080 c0 -355 3 -631 6 -615 l8 30 13 -27 c18 -37 76 -40 90 -5
5 12 9 16 9 9 1 -9 6 -10 21 -2 15 8 21 6 30 -10 13 -25 30 -26 31 -2 1 9 5 1
9 -18 4 -19 8 255 9 610 0 355 -3 640 -7 634 -4 -7 -16 -12 -27 -12 -39 1 -45
-2 -45 -23 0 -29 -33 -17 -75 29 l-33 37 -7 -30 c-13 -57 -19 -60 -25 -10 -4
28 -7 -240 -7 -595z"/>
<path d="M5581 3844 c0 -11 3 -14 6 -6 3 7 2 16 -1 19 -3 4 -6 -2 -5 -13z"/>
<path d="M6455 3145 c-22 -8 -41 -15 -41 -15 -1 0 -9 -15 -18 -34 -35 -74 -14
-149 59 -206 25 -19 45 -40 45 -47 0 -8 -21 -13 -57 -15 l-58 -3 3 -50 c2 -27
10 -61 18 -73 45 -68 210 -69 258 -1 23 34 22 135 -3 175 -11 17 -49 53 -85
80 -53 40 -66 54 -66 77 0 35 27 37 36 2 7 -28 33 -38 85 -33 32 3 34 5 37 44
4 54 -23 88 -82 103 -58 14 -82 13 -131 -4z m93 -363 c3 -37 1 -42 -17 -42
-18 0 -21 6 -21 46 0 38 3 45 18 42 12 -2 18 -15 20 -46z"/>
<path d="M4352 3123 l-10 -28 -2 25 c-2 24 -3 23 -10 -5 -4 -16 -8 -22 -9 -12
-1 22 -6 22 -31 -3 -11 -11 -26 -17 -34 -14 -15 6 -40 -28 -29 -40 3 -3 1 -6
-5 -6 -6 0 -14 18 -19 41 -8 39 -24 54 -31 27 -2 -9 0 -8 7 2 15 22 13 -2 -3
-42 -8 -19 -24 -104 -36 -189 -11 -85 -23 -169 -26 -186 l-6 -33 71 0 71 0 0
40 c0 36 3 40 25 40 23 0 25 -4 25 -40 l0 -40 70 0 c39 0 70 2 70 4 0 4 -34
224 -56 361 -8 50 -15 98 -15 108 0 24 -6 21 -17 -10z m-62 -220 c0 -16 3 -38
6 -50 5 -19 2 -23 -15 -23 -19 0 -21 6 -21 50 0 38 4 50 15 50 10 0 15 -10 15
-27z"/>
<path d="M4450 3102 l0 -52 40 0 40 0 0 -195 0 -195 65 0 66 0 -3 198 -3 197
43 -4 42 -3 0 46 c0 26 -5 46 -11 46 -5 0 -8 -4 -5 -9 4 -5 0 -12 -6 -14 -10
-4 -10 -6 0 -6 6 -1 12 -6 12 -11 0 -7 -6 -7 -20 0 -11 6 -17 16 -14 25 7 17
-31 22 -41 5 -3 -5 -12 -7 -19 -4 -8 3 -16 -7 -23 -28 l-9 -33 -12 36 c-11 31
-17 36 -45 36 -41 0 -67 -18 -40 -28 17 -7 16 -8 -2 -8 -12 -1 -25 -5 -31 -11
-6 -6 -11 1 -12 22 -4 52 -12 45 -12 -10z m105 9 c3 -5 1 -12 -5 -16 -5 -3
-10 1 -10 9 0 18 6 21 15 7z"/>
<path d="M4824 3144 c-7 -3 -10 -15 -8 -27 2 -12 2 -16 -2 -9 -9 20 -24 3 -24
-29 0 -27 3 -29 35 -29 l35 0 0 -195 0 -195 70 0 70 0 0 194 0 195 38 3 c37 3
37 3 40 51 l3 47 -65 0 c-70 0 -99 -7 -90 -21 9 -15 -16 -10 -32 6 -15 14 -47
18 -70 9z"/>
<path d="M5150 2908 l0 -248 115 0 115 0 0 45 0 45 -45 0 -45 0 0 54 0 55 38
3 c36 3 37 4 40 46 l3 42 -40 0 -41 0 0 50 0 50 41 0 40 0 -3 48 -3 47 -97 3
c-75 2 -98 0 -98 -10 0 -9 -3 -9 -10 2 -6 10 -10 -69 -10 -232z"/>
<path d="M5460 2904 l0 -244 65 0 65 0 0 106 c0 95 2 105 18 102 15 -3 17 -17
20 -106 l3 -102 59 0 60 0 0 104 c0 80 -3 106 -15 116 -8 7 -15 19 -15 27 0 8
7 21 15 29 20 20 20 125 0 164 -20 39 -64 51 -179 49 l-96 -1 0 -244z m165
106 c0 -35 -4 -45 -17 -48 -15 -3 -18 4 -18 48 0 44 3 51 18 48 13 -3 17 -13
17 -48z"/>
<path d="M5850 2905 l0 -245 65 0 65 0 0 245 0 245 -65 0 -65 0 0 -245z"/>
<path d="M6087 3143 c-9 -8 -9 -375 -1 -437 l7 -46 108 0 109 0 0 44 0 45 -42
3 -43 3 -3 52 -3 52 38 3 c37 3 38 4 41 46 l3 42 -40 0 -41 0 0 49 0 50 41 3
41 3 2 48 2 47 -106 0 c-59 0 -110 -3 -113 -7z"/>
<path d="M3986 3102 c-11 -33 -33 -47 -51 -32 -18 15 -23 4 -27 -60 -2 -33 -7
-46 -20 -48 -15 -3 -18 4 -18 47 0 38 4 51 14 51 21 0 30 20 16 33 -10 9 -12
8 -7 -5 6 -17 0 -20 -30 -17 -5 0 -7 8 -5 17 2 14 0 13 -13 -3 -9 -11 -20 -27
-25 -35 -8 -13 -10 -13 -22 1 -7 9 -23 19 -35 22 l-23 5 0 -209 0 -209 128 0
c70 0 132 4 138 8 24 15 34 54 34 126 0 63 -4 80 -20 96 -24 24 -25 36 -5 56
21 22 19 97 -4 140 -17 31 -20 33 -25 16z m-76 -292 c0 -53 -2 -60 -20 -60
-18 0 -20 7 -20 60 0 53 2 60 20 60 18 0 20 -7 20 -60z"/>
</g>
</svg>
